#N canvas 0 61 635 694 10;
#X text 397 85 output volume;
#X text 411 103 (0-100);
#X text 432 58 enable printout:;
#N canvas 872 71 308 554 config 0;
#X obj 56 114 text define config;
#X msg 68 90 write config.txt;
#X obj 29 141 text size config;
#X obj 29 268 text get config;
#X msg 56 69 read config.txt;
#X obj 29 187 until;
#X obj 29 244 t f f;
#X obj 29 219 f;
#X obj 76 245 + 1;
#X obj 29 165 t f b;
#X msg 70 187 0;
#X obj 56 318 list split 1;
#X obj 57 372 list;
#X obj 57 400 list trim;
#X obj 103 435 send;
#X obj 46 17 loadbang;
#X obj 29 45 t b b;
#X obj 29 18 bng 15 250 50 0 empty empty empty 17 7 0 10 -262144 -1
-1;
#X obj 92 346 t b a;
#X obj 29 291 t a a;
#X obj 30 434 send print;
#X obj 115 19 inlet;
#X connect 1 0 0 0;
#X connect 2 0 9 0;
#X connect 3 0 19 0;
#X connect 4 0 0 0;
#X connect 5 0 7 0;
#X connect 6 0 3 0;
#X connect 6 1 8 0;
#X connect 7 0 6 0;
#X connect 8 0 7 1;
#X connect 9 0 5 0;
#X connect 9 1 10 0;
#X connect 10 0 7 1;
#X connect 11 0 18 0;
#X connect 11 1 12 1;
#X connect 12 0 13 0;
#X connect 13 0 14 0;
#X connect 15 0 16 0;
#X connect 16 0 2 0;
#X connect 16 1 4 0;
#X connect 17 0 16 0;
#X connect 18 0 12 0;
#X connect 18 1 14 1;
#X connect 19 0 20 0;
#X connect 19 1 11 0;
#X connect 21 0 16 0;
#X restore 31 19 pd config;
#X msg 287 302 \; pd dsp 1;
#X obj 287 263 loadbang;
#X obj 287 282 del 100;
#X obj 80 93 bonker~ bonk;
#X obj 7 53 adc~;
#X obj 7 97 hip~ 5;
#X obj 8 129 env~ 8192;
#X floatatom 9 155 5 0 0 0 - - -, f 5;
#X obj 10 20 bng 15 250 50 0 empty empty empty 17 7 0 10 -262144 -1
-1;
#X obj 61 93 bng 15 250 50 0 empty empty empty 17 7 0 10 -262144 -1
-1;
#X floatatom 321 126 5 0 0 0 - - -, f 5;
#X text 377 177 overall sampler volume;
#N canvas 645 247 450 300 transform 1;
#X obj 26 17 inlet;
#X obj 31 88 / 64;
#X obj 32 50 unpack;
#X obj 33 197 pack;
#X obj 33 219 outlet;
#X obj 75 87 / 10;
#X obj 33 123 * -1;
#X obj 33 143 + 1;
#X text 140 113 inverser pour ques le notes forte sorte un grave;
#X connect 0 0 2 0;
#X connect 1 0 6 0;
#X connect 2 0 1 0;
#X connect 2 1 5 0;
#X connect 3 0 4 0;
#X connect 5 0 3 1;
#X connect 6 0 7 0;
#X connect 7 0 3 0;
#X restore 80 119 pd transform;
#X obj 375 308 dac~;
#X obj 375 266 catch~ out;
#X obj 292 109 tgl 15 0 empty empty empty 17 7 0 10 -262144 -1 -1 0
1;
#X obj 29 193 tgl 15 0 empty empty empty 17 7 0 10 -262144 -1 -1 1
1;
#X obj 140 154 patches/createPoly ../sounds/sound.wav 10;
#X text 236 23 7*24*60*60 = 604800;
#X floatatom 113 487 5 0 0 0 - - -, f 5;
#X obj -106 454 loadbang;
#X msg -105 478 1;
#X obj 74 188 bng 15 250 50 0 empty empty empty 17 7 0 10 -262144 -1
-1;
#X obj 217 192 tabread~;
#X msg 294 579 reconnect;
#N canvas 0 22 450 300 conteur 0;
#X obj 42 29 inlet;
#X obj 208 44 inlet;
#X obj 34 223 outlet;
#X obj 96 135 int;
#X msg 136 67 0;
#X obj 122 246 sel 1;
#X obj 122 218 < 1;
#X msg 161 174 0;
#X obj 121 275 t b b;
#X obj 121 300 outlet;
#X obj 136 134 - 30;
#X obj 98 189 t a a;
#X obj 43 69 route set;
#X connect 0 0 12 0;
#X connect 1 0 10 1;
#X connect 3 0 10 0;
#X connect 3 0 11 0;
#X connect 4 0 3 0;
#X connect 5 0 8 0;
#X connect 6 0 5 0;
#X connect 7 0 3 1;
#X connect 8 0 7 0;
#X connect 8 1 9 0;
#X connect 10 0 3 1;
#X connect 11 0 2 0;
#X connect 11 1 6 0;
#X connect 12 0 3 1;
#X connect 12 1 3 0;
#X restore -35 384 pd conteur;
#X obj 369 448 pd-osc/oreceive 7778;
#X msg 114 545 connect 192.168.1.1 7777;
#X obj 367 479 route /processing;
#X obj 365 507 route ready;
#X obj 374 535 t b;
#X obj 371 580 print osc;
#X obj 168 613 print;
#X obj -56 576 pd-osc/osend 127.0.0.1 7776;
#X obj -36 459 list prepend /temps;
#X obj -42 514 list prepend /opacity;
#X text 242 43 7*60*1000 = 420000;
#X text 110 4 à chaque 420000 ms retirer 604800 unite;
#N canvas 0 22 212 544 calc 0;
#X obj 13 12 inlet;
#X obj 13 34 / 24;
#X obj 12 55 / 60;
#X obj 12 76 / 60;
#X obj 39 120 int;
#X obj 12 165 -;
#X obj 12 98 t a a;
#X obj 38 141 t a a;
#X obj 12 190 * 60;
#X obj 39 235 int;
#X obj 13 294 -;
#X obj 12 213 t a a;
#X obj 39 258 t a a;
#X obj 13 324 * 60;
#X obj 40 369 int;
#X obj 14 428 -;
#X obj 13 347 t a a;
#X obj 40 392 t a a;
#X obj 76 444 pack 0 0 0;
#X obj 76 492 outlet;
#X msg 76 467 \$3 \$2 \$1;
#X obj 156 417 change;
#X obj 111 416 change;
#X obj 67 416 change;
#X connect 0 0 1 0;
#X connect 1 0 2 0;
#X connect 2 0 3 0;
#X connect 3 0 6 0;
#X connect 4 0 7 0;
#X connect 5 0 8 0;
#X connect 6 0 5 0;
#X connect 6 1 4 0;
#X connect 7 0 5 1;
#X connect 7 1 21 0;
#X connect 8 0 11 0;
#X connect 9 0 12 0;
#X connect 10 0 13 0;
#X connect 11 0 10 0;
#X connect 11 1 9 0;
#X connect 12 0 10 1;
#X connect 12 1 22 0;
#X connect 13 0 16 0;
#X connect 14 0 17 0;
#X connect 16 0 15 0;
#X connect 16 1 14 0;
#X connect 17 0 15 1;
#X connect 17 1 23 0;
#X connect 18 0 20 0;
#X connect 20 0 19 0;
#X connect 21 0 18 2;
#X connect 22 0 18 1;
#X connect 23 0 18 0;
#X restore -20 410 pd calc;
#X obj 45 222 metro 21;
#N canvas 0 22 599 403 timeline 0;
#X obj 11 14 inlet;
#X obj 228 101 text define timeline;
#X obj 228 26 loadbang;
#X msg 228 50 read timeline.txt;
#X msg 237 74 write timeline.txt;
#X obj 11 78 text search timeline;
#X floatatom 71 127 5 0 0 0 - - -, f 5;
#X obj 12 128 sel -1;
#X obj 46 164 text get timeline;
#X obj 9 194 list split 3;
#X obj 43 238 print;
#X connect 0 0 5 0;
#X connect 2 0 3 0;
#X connect 3 0 1 0;
#X connect 4 0 1 0;
#X connect 5 0 6 0;
#X connect 5 0 7 0;
#X connect 7 1 8 0;
#X connect 8 0 9 0;
#X connect 9 1 10 0;
#X restore -20 434 pd timeline;
#X obj 185 514 list prepend /trail;
#X obj 198 480 hsl 128 15 0 1 0 1 empty empty empty -8 0 0 8 -262144
-1 -1 10608 0;
#X obj 121 296 hsl 128 15 0 1 0 1 empty empty empty -8 0 0 8 -262144
-1 -1 9700 0;
#X obj 190 348 hsl 128 15 0 1 0 1 empty empty empty -8 0 0 8 -262144
-1 -1 2100 0;
#X obj 194 379 pow 0.1;
#X obj 350 365 line 0;
#X obj 196 427 line 0;
#X msg 195 401 \$1 50;
#N canvas 247 332 456 346 accumOpac 0;
#X obj 182 41 inlet;
#X obj 159 179 f;
#X obj 95 38 inlet;
#X obj 94 67 t b;
#X obj 209 205 + 0;
#X obj 182 73 t b;
#X obj 303 316 outlet;
#X obj 195 145 t b a;
#X obj 161 263 > 1;
#X obj 148 235 t a a a;
#X obj 161 285 sel 1;
#X msg 161 313 1;
#X obj 101 285 sel 1;
#X obj 101 263 < 0.2;
#X msg 101 313 0.2;
#X obj 301 286 clip 0.2 1;
#X msg 94 95 -0.005;
#X msg 182 97 0.1;
#X connect 0 0 5 0;
#X connect 1 0 4 0;
#X connect 2 0 3 0;
#X connect 3 0 16 0;
#X connect 4 0 1 1;
#X connect 4 0 9 0;
#X connect 5 0 17 0;
#X connect 7 0 1 0;
#X connect 7 1 4 1;
#X connect 8 0 10 0;
#X connect 9 0 13 0;
#X connect 9 1 8 0;
#X connect 9 2 15 0;
#X connect 10 0 11 0;
#X connect 11 0 1 1;
#X connect 12 0 14 0;
#X connect 13 0 12 0;
#X connect 14 0 1 1;
#X connect 15 0 6 0;
#X connect 16 0 7 0;
#X connect 17 0 7 0;
#X restore 105 255 pd accumOpac;
#N canvas 763 82 450 300 control 1;
#X obj 82 84 hsl 128 15 0 50 0 0 empty empty empty -2 -8 0 10 -262144
-1 -1 0 1;
#X floatatom 41 86 5 0 0 0 - - -, f 5;
#X obj 77 37 r ecouleTempsObjectif;
#X msg 78 59 set \$1;
#X obj 78 111 s ecouleTempsObjectif;
#X obj 88 196 hsl 128 15 0 1000 0 0 empty empty empty -2 -8 0 10 -262144
-1 -1 0 1;
#X floatatom 47 198 5 0 0 0 - - -, f 5;
#X msg 84 171 set \$1;
#X obj 83 149 r ecouleTempsSubjectif;
#X obj 84 224 s ecouleTempsSubjectif;
#X obj 297 222 s clickAbsolu;
#X msg 301 188 345700;
#X msg 292 160 10000;
#X msg 291 126 604800;
#X connect 0 0 1 0;
#X connect 1 0 4 0;
#X connect 2 0 3 0;
#X connect 3 0 1 0;
#X connect 3 0 0 0;
#X connect 5 0 6 0;
#X connect 6 0 9 0;
#X connect 7 0 6 0;
#X connect 7 0 5 0;
#X connect 8 0 7 0;
#X connect 11 0 10 0;
#X connect 12 0 10 0;
#X connect 13 0 10 0;
#X restore 211 85 pd control;
#N canvas 0 22 450 300 tempSubObj 0;
#X obj 35 44 inlet;
#X obj 293 18 inlet;
#X obj 264 219 outlet;
#X obj 32 235 outlet;
#X obj 309 68 t b b;
#X obj 38 73 t b b;
#X obj 56 104 f;
#X obj 80 104 var DeltaSubjectif;
#X obj 212 152 f;
#X obj 237 152 var DeltaObjectif;
#X connect 0 0 5 0;
#X connect 1 0 4 0;
#X connect 4 0 3 0;
#X connect 4 1 8 0;
#X connect 5 0 3 0;
#X connect 5 1 6 0;
#X connect 6 0 2 0;
#X connect 7 0 6 1;
#X connect 8 0 2 0;
#X connect 9 0 8 1;
#X restore -36 336 pd tempSubObj;
#X obj 37 257 t b b;
#X obj -151 385 var clickAbsolu;
#X connect 5 0 6 0;
#X connect 6 0 4 0;
#X connect 7 0 13 0;
#X connect 7 0 16 0;
#X connect 7 0 53 1;
#X connect 8 0 9 0;
#X connect 8 0 7 0;
#X connect 9 0 10 0;
#X connect 10 0 11 0;
#X connect 12 0 3 0;
#X connect 14 0 21 1;
#X connect 16 0 21 0;
#X connect 18 0 17 0;
#X connect 18 0 17 1;
#X connect 19 0 21 1;
#X connect 20 0 43 0;
#X connect 23 0 39 0;
#X connect 24 0 25 0;
#X connect 25 0 23 0;
#X connect 26 0 53 1;
#X connect 28 0 37 1;
#X connect 29 0 38 0;
#X connect 29 0 42 0;
#X connect 30 0 32 0;
#X connect 31 0 37 1;
#X connect 32 0 33 0;
#X connect 33 0 34 0;
#X connect 34 0 28 0;
#X connect 34 0 35 0;
#X connect 38 0 37 0;
#X connect 39 0 37 0;
#X connect 42 0 44 0;
#X connect 43 0 56 0;
#X connect 45 0 37 0;
#X connect 46 0 45 0;
#X connect 47 0 23 0;
#X connect 48 0 49 0;
#X connect 49 0 52 0;
#X connect 51 0 46 0;
#X connect 52 0 51 0;
#X connect 53 0 23 0;
#X connect 55 0 29 0;
#X connect 55 1 29 1;
#X connect 56 0 55 1;
#X connect 56 1 53 0;
#X connect 57 1 29 0;
