#N canvas 921 67 503 525 10;
#X text 397 85 output volume;
#X text 411 103 (0-100);
#X text 432 58 enable printout:;
#N canvas 872 71 308 554 config 0;
#X obj 56 114 text define config;
#X msg 68 90 write config.txt;
#X obj 29 141 text size config;
#X obj 29 268 text get config;
#X msg 56 69 read config.txt;
#X obj 29 187 until;
#X obj 29 244 t f f;
#X obj 29 219 f;
#X obj 76 245 + 1;
#X obj 29 165 t f b;
#X msg 70 187 0;
#X obj 56 318 list split 1;
#X obj 57 372 list;
#X obj 57 400 list trim;
#X obj 103 435 send;
#X obj 46 17 loadbang;
#X obj 29 45 t b b;
#X obj 29 18 bng 15 250 50 0 empty empty empty 17 7 0 10 -262144 -1
-1;
#X obj 92 346 t b a;
#X obj 29 291 t a a;
#X obj 30 434 send print;
#X obj 115 19 inlet;
#X connect 1 0 0 0;
#X connect 2 0 9 0;
#X connect 3 0 19 0;
#X connect 4 0 0 0;
#X connect 5 0 7 0;
#X connect 6 0 3 0;
#X connect 6 1 8 0;
#X connect 7 0 6 0;
#X connect 8 0 7 1;
#X connect 9 0 5 0;
#X connect 9 1 10 0;
#X connect 10 0 7 1;
#X connect 11 0 18 0;
#X connect 11 1 12 1;
#X connect 12 0 13 0;
#X connect 13 0 14 0;
#X connect 15 0 16 0;
#X connect 16 0 2 0;
#X connect 16 1 4 0;
#X connect 17 0 16 0;
#X connect 18 0 12 0;
#X connect 18 1 14 1;
#X connect 19 0 20 0;
#X connect 19 1 11 0;
#X connect 21 0 16 0;
#X restore 31 19 pd config;
#X msg 287 302 \; pd dsp 1;
#X obj 287 263 loadbang;
#X obj 287 282 del 100;
#X obj 80 93 bonker~ bonk;
#X obj 6 61 adc~;
#X obj 7 97 hip~ 5;
#X obj 8 129 env~ 8192;
#X floatatom 9 155 5 0 0 0 - - -, f 5;
#X obj 10 20 bng 15 250 50 0 empty empty empty 17 7 0 10 -262144 -1
-1;
#X obj 61 93 bng 15 250 50 0 empty empty empty 17 7 0 10 -262144 -1
-1;
#X floatatom 321 126 5 0 0 0 - - -, f 5;
#X text 377 177 overall sampler volume;
#N canvas 0 22 450 300 transform 0;
#X obj 26 17 inlet;
#X obj 31 88 / 64;
#X obj 32 50 unpack;
#X obj 35 126 pack;
#X obj 35 148 outlet;
#X obj 75 87 / 10;
#X connect 0 0 2 0;
#X connect 1 0 3 0;
#X connect 2 0 1 0;
#X connect 2 1 5 0;
#X connect 3 0 4 0;
#X connect 5 0 3 1;
#X restore 80 119 pd transform;
#X obj 375 308 dac~;
#X obj 375 266 catch~ out;
#X obj 292 109 tgl 15 0 empty empty empty 17 7 0 10 -262144 -1 -1 0
1;
#X obj 61 338 int;
#X msg 78 307 0;
#X obj 63 219 tgl 15 0 empty empty empty 17 7 0 10 -262144 -1 -1 1
1;
#X obj 80 149 patches/createPoly ../sounds/sound.wav 10;
#X obj 63 247 metro 33;
#X text 236 42 7*24*60*60 = 604800;
#X msg -57 215 345700;
#X obj 94 353 - 1;
#X msg 208 297 1;
#X obj 60 495 pd-osc/osend 127.0.0.1 7777;
#X obj 219 474 bng 15 250 50 0 empty empty reconnect 17 7 0 10 -262144
-1 -1;
#X msg 208 272 61;
#X obj -55 320 sel 1;
#X obj -79 322 < 1;
#X obj -16 320 t b;
#X msg 15 321 0;
#X msg -48 282 10000;
#X floatatom 118 415 5 0 0 0 - - -, f 5;
#X obj 140 351 loadbang;
#X msg 61 446 /temps \$1 \$2;
#X obj 61 414 pack;
#X msg 141 375 1;
#X obj 202 347 line 0;
#N canvas 82 378 456 346 accumOpac 0;
#X obj 182 41 inlet;
#X obj 159 179 f;
#X obj 95 38 inlet;
#X obj 94 67 t b;
#X obj 209 205 + 0;
#X obj 182 73 t b;
#X obj 303 316 outlet;
#X obj 195 145 t b a;
#X obj 161 263 > 1;
#X obj 148 235 t a a a;
#X obj 161 285 sel 1;
#X msg 161 313 1;
#X obj 101 285 sel 1;
#X obj 101 263 < 0.2;
#X msg 101 313 0.2;
#X obj 301 286 clip 0.2 1;
#X msg 94 95 -0.005;
#X msg 182 97 0.1;
#X connect 0 0 5 0;
#X connect 1 0 4 0;
#X connect 2 0 3 0;
#X connect 3 0 16 0;
#X connect 4 0 1 1;
#X connect 4 0 9 0;
#X connect 5 0 17 0;
#X connect 7 0 1 0;
#X connect 7 1 4 1;
#X connect 8 0 10 0;
#X connect 9 0 13 0;
#X connect 9 1 8 0;
#X connect 9 2 15 0;
#X connect 10 0 11 0;
#X connect 11 0 1 1;
#X connect 12 0 14 0;
#X connect 13 0 12 0;
#X connect 14 0 1 1;
#X connect 15 0 6 0;
#X connect 16 0 7 0;
#X connect 17 0 7 0;
#X restore 121 246 pd accumOpac;
#X obj 74 188 bng 15 250 50 0 empty empty empty 17 7 0 10 -262144 -1
-1;
#X msg -49 248 604800;
#X obj 217 192 tabread~;
#X connect 5 0 6 0;
#X connect 6 0 4 0;
#X connect 7 0 13 0;
#X connect 7 0 16 0;
#X connect 7 0 43 1;
#X connect 8 0 9 0;
#X connect 8 0 7 0;
#X connect 9 0 10 0;
#X connect 10 0 11 0;
#X connect 12 0 3 0;
#X connect 14 0 23 1;
#X connect 16 0 23 0;
#X connect 18 0 17 0;
#X connect 18 0 17 1;
#X connect 19 0 23 1;
#X connect 20 0 27 0;
#X connect 20 0 33 0;
#X connect 20 0 40 0;
#X connect 21 0 20 0;
#X connect 22 0 24 0;
#X connect 24 0 20 0;
#X connect 24 0 43 0;
#X connect 26 0 20 0;
#X connect 27 0 20 1;
#X connect 28 0 27 1;
#X connect 30 0 29 3;
#X connect 31 0 27 1;
#X connect 32 0 34 0;
#X connect 33 0 32 0;
#X connect 34 0 35 0;
#X connect 35 0 20 1;
#X connect 36 0 20 0;
#X connect 37 0 40 1;
#X connect 38 0 41 0;
#X connect 39 0 29 0;
#X connect 40 0 39 0;
#X connect 41 0 37 0;
#X connect 42 0 37 0;
#X connect 43 0 37 0;
#X connect 44 0 43 1;
#X connect 45 0 20 0;
