#N canvas 829 30 519 447 10;
#N canvas 580 119 308 554 config 0;
#X obj 56 114 text define config;
#X msg 68 90 write config.txt;
#X obj 29 141 text size config;
#X obj 29 268 text get config;
#X msg 56 69 read config.txt;
#X obj 29 187 until;
#X obj 29 244 t f f;
#X obj 29 219 f;
#X obj 76 245 + 1;
#X obj 29 165 t f b;
#X msg 70 187 0;
#X obj 56 318 list split 1;
#X obj 57 372 list;
#X obj 57 400 list trim;
#X obj 103 435 send;
#X obj 46 17 loadbang;
#X obj 29 45 t b b;
#X obj 29 18 bng 15 250 50 0 empty empty empty 17 7 0 10 -262144 -1
-1;
#X obj 92 346 t b a;
#X obj 29 291 t a a;
#X obj 30 434 send print;
#X obj 115 19 inlet;
#X msg 160 184 \; pd dsp 1;
#X obj 160 145 loadbang;
#X obj 160 164 del 100;
#X connect 1 0 0 0;
#X connect 2 0 9 0;
#X connect 3 0 19 0;
#X connect 4 0 0 0;
#X connect 5 0 7 0;
#X connect 6 0 3 0;
#X connect 6 1 8 0;
#X connect 7 0 6 0;
#X connect 8 0 7 1;
#X connect 9 0 5 0;
#X connect 9 1 10 0;
#X connect 10 0 7 1;
#X connect 11 0 18 0;
#X connect 11 1 12 1;
#X connect 12 0 13 0;
#X connect 13 0 14 0;
#X connect 15 0 16 0;
#X connect 16 0 2 0;
#X connect 16 1 4 0;
#X connect 17 0 16 0;
#X connect 18 0 12 0;
#X connect 18 1 14 1;
#X connect 19 0 20 0;
#X connect 19 1 11 0;
#X connect 21 0 16 0;
#X connect 23 0 24 0;
#X connect 24 0 22 0;
#X restore 395 70 pd config;
#X obj 106 119 bonker~ bonk;
#X obj 106 87 adc~;
#X obj 374 71 bng 15 250 50 0 empty empty empty 17 7 0 10 -262144 -1
-1;
#X obj 87 118 bng 15 250 50 0 empty empty empty 17 7 0 10 -262144 -1
-1;
#N canvas 690 299 450 300 transform 0;
#X obj 26 17 inlet;
#X obj -31 88 / 64;
#X obj 31 48 unpack;
#X obj 30 197 pack;
#X obj 30 219 outlet;
#X obj 178 105 / 10;
#X obj -29 123 * -1;
#X obj -29 143 + 1;
#X text 215 112 inverser pour ques le notes forte sorte un grave;
#X obj 173 151 clip 0 1;
#X obj 29 113 expr abs(100-$f1)/127;
#X obj 29 80 * 2;
#X connect 0 0 2 0;
#X connect 1 0 6 0;
#X connect 2 0 11 0;
#X connect 2 1 5 0;
#X connect 3 0 4 0;
#X connect 5 0 9 0;
#X connect 6 0 7 0;
#X connect 9 0 3 1;
#X connect 10 0 3 0;
#X connect 11 0 10 0;
#X restore 132 170 pd transform;
#X obj 6 116 dac~;
#X obj 6 88 catch~ out;
#X obj 281 224 tgl 15 0 empty empty empty 17 7 0 10 -262144 -1 -1 0
1;
#N canvas 827 290 450 300 conteur 0;
#X obj 42 29 inlet;
#X obj 208 44 inlet;
#X obj 37 238 outlet;
#X obj 96 135 int;
#X msg 136 67 0;
#X obj 122 246 sel 1;
#X msg 161 174 0;
#X obj 121 275 t b b;
#X obj 165 277 outlet;
#X obj 43 69 route set;
#X obj 162 135 - 1;
#X obj 122 218 < 1;
#X obj 95 188 t a a a;
#X obj 41 104 change;
#X msg 33 178 set \$1;
#X connect 0 0 9 0;
#X connect 1 0 10 1;
#X connect 3 0 10 0;
#X connect 3 0 12 0;
#X connect 4 0 3 0;
#X connect 5 0 7 0;
#X connect 6 0 3 1;
#X connect 7 0 6 0;
#X connect 7 1 8 0;
#X connect 9 0 13 0;
#X connect 9 1 3 0;
#X connect 10 0 3 1;
#X connect 11 0 5 0;
#X connect 12 0 2 0;
#X connect 12 1 11 0;
#X connect 12 2 14 0;
#X connect 13 0 3 0;
#X connect 14 0 13 0;
#X restore 107 319 pd conteur;
#X obj 294 295 pd-osc/oreceive 7778;
#X obj 106 386 pd-osc/osend 127.0.0.1 7776;
#X obj 107 343 list prepend /temps;
#N canvas 879 309 456 346 accumOpac 0;
#X obj 182 41 inlet;
#X obj 159 179 f;
#X obj 247 43 inlet;
#X obj 246 72 t b;
#X obj 209 205 + 0;
#X obj 182 73 t b;
#X obj 303 316 outlet;
#X obj 195 145 t b a;
#X obj 161 263 > 1;
#X obj 148 235 t a a a;
#X obj 161 285 sel 1;
#X msg 161 313 1;
#X obj 101 285 sel 1;
#X obj 101 263 < 0.2;
#X msg 101 313 0.2;
#X obj 301 286 clip 0.2 1;
#X msg 246 100 -0.0025;
#X msg 182 97 0.03;
#X connect 0 0 5 0;
#X connect 1 0 4 0;
#X connect 2 0 3 0;
#X connect 3 0 16 0;
#X connect 4 0 1 1;
#X connect 4 0 9 0;
#X connect 5 0 17 0;
#X connect 7 0 1 0;
#X connect 7 1 4 1;
#X connect 8 0 10 0;
#X connect 9 0 13 0;
#X connect 9 1 8 0;
#X connect 9 2 15 0;
#X connect 10 0 11 0;
#X connect 11 0 1 1;
#X connect 12 0 14 0;
#X connect 13 0 12 0;
#X connect 14 0 1 1;
#X connect 15 0 6 0;
#X connect 16 0 7 0;
#X connect 17 0 7 0;
#X restore 209 295 pd accumOpac;
#N canvas 3 29 839 661 control 1;
#X msg 84 45 604800;
#X floatatom 182 137 10 0 0 0 - - -, f 10;
#X floatatom 182 68 10 0 0 0 - - -, f 10;
#X floatatom 182 117 10 0 0 0 - - -, f 10;
#X obj 246 45 tgl 15 0 empty empty empty 17 7 0 10 -262144 -1 -1 0
1;
#X obj 187 177 hsl 128 15 0 1 0 1 empty empty empty -8 0 0 8 -262144
-1 -1 12700 0;
#X obj 187 155 hsl 128 15 0 1 0 1 empty empty empty -8 0 0 8 -262144
-1 -1 635 0;
#X floatatom 500 146 10 0 0 0 - - -, f 10;
#X floatatom 501 106 10 0 0 0 - - -, f 10;
#X floatatom 500 126 10 0 0 0 - - -, f 10;
#X floatatom 501 168 10 0 0 0 - - -, f 10;
#X floatatom 500 191 5 0 0 0 - - -, f 5;
#X floatatom 498 211 5 0 0 0 - - -, f 5;
#X floatatom 499 231 5 0 0 0 - - -, f 5;
#X obj 185 211 hsl 128 15 0 1 0 1 empty empty empty -8 0 0 8 -262144
-1 -1 1270 0;
#X obj 186 253 tgl 15 0 empty empty empty 17 7 0 10 -262144 -1 -1 0
1;
#X obj 186 272 tgl 15 0 empty empty empty 17 7 0 10 -262144 -1 -1 0
1;
#X obj 186 194 hsl 128 15 0 1 0 1 empty empty empty -8 0 0 8 -262144
-1 -1 1270 0;
#X floatatom 499 250 5 0 0 0 - - -, f 5;
#X floatatom 499 267 5 0 0 0 - - -, f 5;
#X text 28 45 Start ->;
#X obj 651 59 loadbang;
#X obj 652 119 text define sequence;
#X msg 652 98 write timeline.txt;
#X msg 651 77 read timeline.txt;
#X obj 175 95 hsl 128 15 0 1 0 1 empty empty empty -8 0 0 8 -262144
-1 -1 0 0;
#X text 13 116 0 750;
#X text 18 137 0 500;
#X text 26 196 0 1;
#X text 21 69 reset;
#X text 565 42 reset;
#X text 18 100 0 1;
#X text 415 191 label;
#X text 414 211 label;
#X text 414 230 label;
#X text 344 247 label;
#X text 343 269 label;
#X text 28 155 0 1;
#X text 269 45 0 1;
#X obj 397 314 r /GO;
#X obj 87 314 r /READY;
#X obj 62 93 var masterOpacity;
#X obj 393 626 send line/masterOpacity;
#X obj 711 317 r /Fin;
#X msg 712 367 \; clickAbsolu 0 \; clickActive 0 \; tickTack 0 \; tickTackVol
0 \; polyVolume 0 \; chrono 0 \; tickTackChime 0 \; deltaObjectif 0
\; deltaSubjectif 0 \;;
#X obj 494 561 send line/polyVolume;
#X obj 454 589 send line/tickTackVol;
#X obj 87 344 bng 15 250 50 0 empty empty empty 17 7 0 10 -262144 -1
-1;
#X obj 252 344 bng 15 250 50 0 empty empty empty 17 7 0 10 -262144
-1 -1;
#X obj 379 363 bng 15 250 50 0 empty empty empty 17 7 0 10 -262144
-1 -1;
#X obj 74 252 var tickTackChime;
#X obj 66 116 var deltaSubjectif;
#X obj 69 136 var deltaObjectif;
#X obj 83 67 var clickAbsolu;
#X obj 146 45 var clickActive;
#X obj 109 155 var opacity;
#X obj 122 176 var trail;
#X obj 394 145 var /bonk/minVel;
#X obj 358 104 var /bonk/highTreshold;
#X obj 357 124 var /bonk/fallThreshold;
#X obj 353 167 var /bonk/attack-frames;
#X obj 456 189 var jj;
#X obj 456 209 var hh;
#X obj 456 228 var mm;
#X obj 92 193 var polyVolume;
#X obj 105 271 var tickTack;
#X obj 83 211 var tickTackVol;
#X obj 396 249 var timerMinutes;
#X obj 390 266 var timersecondes;
#X msg 252 364 \; clickAbsolu 604800 \; clickActive 1 \; tickTack 1
\; chrono 1 \; tickTackChime 0 \; deltaObjectif 10 \; deltaSubjectif
45 \;;
#X obj 571 344 bng 15 250 50 0 empty empty empty 17 7 0 10 -262144
-1 -1;
#X msg 397 364 0.8 10000;
#X obj 186 231 hsl 128 15 0 1 0 1 empty empty empty -8 0 0 8 -262144
-1 -1 0 0;
#X obj 572 314 r /FadeOut;
#X obj 528 532 send line/chimeVol;
#X obj 711 347 bng 15 250 50 0 empty empty empty 17 7 0 10 -262144
-1 -1;
#X obj 253 314 r /SET;
#X obj 98 231 var chimeVol;
#X msg 582 428 0 10000;
#X msg 586 371 0 500;
#X msg 583 400 0 5000;
#X msg 448 387 0.3 1000;
#X msg 578 503 \; tickTackChime 1;
#X msg 88 364 \; clickAbsolu 604800 \; masterOpacity 0 \; line/masterOpacity
0 1 \; polyVolume 0 \; line/polyVolume 0 1 \; clickActive 0 \; tickTackVol
0 \; line/tickTackVol 0 1 \; deltaObjectif 0 \; deltaSubjectif 0 \;
tickTackChime 0 \; tickTack 1 \; line/tickTackVol 0 1 \; chimeVol 1
\; line/chimeVol 0 1 \;;
#X msg 489 412 0.66 100;
#X connect 0 0 53 0;
#X connect 1 0 52 1;
#X connect 2 0 53 1;
#X connect 3 0 51 1;
#X connect 4 0 54 1;
#X connect 5 0 56 1;
#X connect 6 0 55 1;
#X connect 7 0 57 1;
#X connect 8 0 58 1;
#X connect 9 0 59 1;
#X connect 10 0 60 1;
#X connect 11 0 61 1;
#X connect 12 0 62 1;
#X connect 13 0 63 1;
#X connect 14 0 66 1;
#X connect 15 0 50 1;
#X connect 16 0 65 1;
#X connect 17 0 64 1;
#X connect 18 0 67 1;
#X connect 19 0 68 1;
#X connect 21 0 24 0;
#X connect 23 0 22 0;
#X connect 24 0 22 0;
#X connect 25 0 41 1;
#X connect 39 0 49 0;
#X connect 40 0 47 0;
#X connect 41 1 25 0;
#X connect 43 0 75 0;
#X connect 47 0 83 0;
#X connect 48 0 69 0;
#X connect 49 0 71 0;
#X connect 49 0 81 0;
#X connect 49 0 84 0;
#X connect 50 1 15 0;
#X connect 51 1 3 0;
#X connect 52 1 1 0;
#X connect 53 1 2 0;
#X connect 54 1 4 0;
#X connect 55 1 6 0;
#X connect 56 1 5 0;
#X connect 57 1 7 0;
#X connect 58 1 8 0;
#X connect 59 1 9 0;
#X connect 60 1 10 0;
#X connect 61 1 11 0;
#X connect 62 1 12 0;
#X connect 63 1 13 0;
#X connect 64 1 17 0;
#X connect 65 1 16 0;
#X connect 66 1 14 0;
#X connect 67 1 18 0;
#X connect 68 1 19 0;
#X connect 70 0 80 0;
#X connect 70 0 78 0;
#X connect 70 0 79 0;
#X connect 70 0 82 0;
#X connect 71 0 42 0;
#X connect 71 0 45 0;
#X connect 72 0 77 1;
#X connect 73 0 70 0;
#X connect 75 0 44 0;
#X connect 76 0 48 0;
#X connect 77 1 72 0;
#X connect 78 0 74 0;
#X connect 79 0 42 0;
#X connect 80 0 45 0;
#X connect 80 0 46 0;
#X connect 81 0 46 0;
#X connect 84 0 74 0;
#X coords 0 661 1 660 500 300 0;
#X restore 183 29 pd control;
#N canvas 349 247 450 300 tempSubObj 0;
#X obj 35 44 inlet;
#X obj 293 18 inlet;
#X obj 211 233 outlet;
#X obj 32 235 outlet;
#X obj 286 91 t b b;
#X obj 38 73 t b b;
#X obj 56 104 f;
#X obj 211 153 f;
#X obj 236 152 var deltaObjectif;
#X obj 80 104 var deltaSubjectif;
#X connect 0 0 5 0;
#X connect 1 0 4 0;
#X connect 4 0 3 0;
#X connect 4 1 7 0;
#X connect 5 0 3 0;
#X connect 5 1 6 0;
#X connect 6 0 2 0;
#X connect 7 0 2 0;
#X connect 8 0 7 1;
#X connect 9 0 6 1;
#X restore 107 295 pd tempSubObj;
#X obj 182 271 t b b;
#X obj 181 244 metro 21;
#X obj 107 269 t b b;
#N canvas 538 356 760 386 vizParam 0;
#X obj 386 155 inlet;
#X obj 231 340 outlet;
#X obj 43 338 outlet;
#X obj 36 264 list prepend /trail;
#X obj 93 129 hsl 128 15 0 1 0 1 empty empty empty -8 0 0 8 -262144
-1 -1 12700 0;
#X obj 30 223 line 0;
#X msg 29 197 \$1 50;
#X obj 198 297 list prepend /opacity;
#X obj 265 201 hsl 128 15 0 1 0 1 empty empty empty -8 0 0 8 -262144
-1 -1 635 0;
#X obj 27 152 f;
#X obj 201 255 f;
#X obj 27 12 inlet, f 7;
#X obj 309 101 expr 1-$f1;
#X floatatom 99 16 5 0 0 0 - - -, f 5;
#X obj 28 70 t a a;
#X obj 217 62 hsl 128 15 0 1 0 1 empty empty empty -8 0 0 8 -262144
-1 -1 4700 0;
#X obj 28 175 pow 0.2;
#X obj 310 132 clip 0.05 1;
#X obj 107 234 clip 0 0.98;
#X obj 248 271 *;
#X obj 324 243 t b f;
#X obj 187 201 var opacity;
#X obj 28 128 var trail;
#X obj 374 258 var masterOpacity;
#X connect 0 0 9 0;
#X connect 0 0 10 0;
#X connect 3 0 2 0;
#X connect 4 0 22 1;
#X connect 5 0 18 0;
#X connect 6 0 5 0;
#X connect 7 0 2 0;
#X connect 8 0 21 1;
#X connect 9 0 16 0;
#X connect 10 0 19 0;
#X connect 11 0 14 0;
#X connect 12 0 17 0;
#X connect 13 0 14 0;
#X connect 14 0 22 0;
#X connect 14 1 12 0;
#X connect 15 0 13 0;
#X connect 16 0 6 0;
#X connect 17 0 21 0;
#X connect 18 0 3 0;
#X connect 19 0 7 0;
#X connect 20 0 19 0;
#X connect 20 1 19 1;
#X connect 21 0 10 0;
#X connect 21 1 8 0;
#X connect 22 0 9 0;
#X connect 22 1 4 0;
#X connect 23 0 20 0;
#X restore 231 343 pd vizParam;
#N canvas 0 22 450 300 reconnect 0;
#X obj 134 203 outlet;
#X obj 139 17 inlet;
#X msg 131 154 reconnect;
#X obj 140 46 route /processing;
#X obj 138 74 route ready;
#X obj 200 153 print osc;
#X obj 78 208 outlet;
#X obj 139 102 t b b;
#X connect 1 0 3 0;
#X connect 2 0 0 0;
#X connect 3 0 4 0;
#X connect 4 0 7 0;
#X connect 7 0 5 0;
#X connect 7 0 6 0;
#X connect 7 1 2 0;
#X restore 294 318 pd reconnect;
#X obj 132 196 patches/createPoly ../sounds/sound.wav 10;
#X obj 106 148 t b a;
#N canvas 407 261 493 350 tickTack 0;
#X obj 437 171 soundfiler;
#X obj 537 169 array define snd1;
#X msg 450 132 read -resize sounds/chime.wav snd1;
#X obj 53 317 throw~ out;
#X obj 52 150 tabplay~ snd1;
#X msg 256 182 0;
#X obj 537 195 array define loop;
#X msg 437 105 read -resize sounds/loop.wav loop;
#X obj 128 182 tabplay~ loop;
#X msg 194 241 \$1 100;
#X obj 157 241 line~;
#X obj 129 240 *~;
#X floatatom 341 244 5 0 0 0 - - -, f 5;
#X obj 52 122 spigot;
#X obj 51 46 sel 0 1;
#X obj 160 22 tgl 15 0 empty empty empty 17 7 0 10 -262144 -1 -1 0
1;
#X obj 148 125 spigot;
#X obj 109 77 t f f;
#X msg 49 78 0;
#X msg 77 79 1;
#X msg 147 80 0;
#X msg 173 80 1;
#X msg 104 109 0;
#X obj 313 126 sel 0 1;
#X msg 269 129 stop;
#X obj 394 101 tgl 15 0 empty empty empty 17 7 0 10 -262144 -1 -1 0
1;
#X obj 446 42 loadbang;
#X obj 446 71 t b b;
#X obj 32 -8 r tickTackPlayChime;
#X obj 14 -7 bng 15 250 50 0 empty empty empty 17 7 0 10 -262144 -1
-1;
#X obj 217 183 del 1;
#X obj 313 100 var tickTack;
#X obj 51 21 var tickTackChime;
#X obj 241 241 var tickTackVol;
#X obj 53 287 lop~ 1760;
#X msg 116 211 \$1 100;
#X obj 79 211 line~;
#X obj 51 210 *~;
#X floatatom 246 212 5 0 0 0 - - -, f 5;
#X obj 163 211 var chimeVol;
#X obj 53 261 +~;
#X obj 11 127 t b;
#X connect 2 0 0 0;
#X connect 4 0 37 0;
#X connect 4 1 8 0;
#X connect 5 0 17 0;
#X connect 7 0 0 0;
#X connect 8 0 11 0;
#X connect 8 1 30 0;
#X connect 9 0 10 0;
#X connect 10 0 11 1;
#X connect 11 0 40 1;
#X connect 12 0 33 1;
#X connect 13 0 4 0;
#X connect 14 0 18 0;
#X connect 14 0 21 0;
#X connect 14 1 19 0;
#X connect 14 1 20 0;
#X connect 15 0 32 1;
#X connect 16 0 8 0;
#X connect 17 0 13 0;
#X connect 17 0 22 0;
#X connect 17 1 16 0;
#X connect 18 0 13 1;
#X connect 19 0 13 1;
#X connect 20 0 16 1;
#X connect 21 0 16 1;
#X connect 22 0 32 0;
#X connect 23 0 24 0;
#X connect 23 1 8 0;
#X connect 24 0 8 0;
#X connect 25 0 31 1;
#X connect 26 0 27 0;
#X connect 27 0 7 0;
#X connect 27 1 2 0;
#X connect 28 0 41 0;
#X connect 29 0 41 0;
#X connect 30 0 5 0;
#X connect 31 0 23 0;
#X connect 31 1 25 0;
#X connect 32 0 14 0;
#X connect 32 1 15 0;
#X connect 33 0 9 0;
#X connect 33 1 12 0;
#X connect 34 0 3 0;
#X connect 35 0 36 0;
#X connect 36 0 37 1;
#X connect 37 0 40 0;
#X connect 38 0 39 1;
#X connect 39 0 35 0;
#X connect 39 1 38 0;
#X connect 40 0 34 0;
#X connect 41 0 4 0;
#X restore 383 93 pd tickTack;
#X obj 106 236 t b;
#N canvas 532 173 593 401 timeline 0;
#X obj 27 -9 inlet;
#X obj 58 150 list split 3;
#X obj 27 64 sel -1;
#X obj 27 40 text search sequence;
#X obj 92 379 send;
#X obj 92 357 list trim;
#X obj 88 260 list split 1;
#X obj 92 332 list;
#X obj 92 311 t b a;
#X obj 92 123 print;
#X obj 58 95 text get sequence;
#N canvas 0 22 362 534 calc 0;
#X obj 13 12 inlet;
#X obj 12 55 / 60;
#X obj 12 76 / 60;
#X obj 39 120 int;
#X obj 12 165 -;
#X obj 12 98 t a a;
#X obj 38 141 t a a;
#X obj 39 235 int;
#X obj 13 294 -;
#X obj 12 213 t a a;
#X obj 39 258 t a a;
#X obj 13 324 * 60;
#X obj 40 369 int;
#X obj 14 428 -;
#X obj 13 347 t a a;
#X obj 40 392 t a a;
#X obj 65 459 pack 0 0 0;
#X obj 65 507 outlet;
#X msg 65 482 \$3 \$2 \$1;
#X obj 156 417 change;
#X obj 111 416 change;
#X obj 67 416 change;
#X obj 12 190 * 24;
#X obj 13 34 / 24;
#X obj 237 451 var jj;
#X obj 237 474 var hh;
#X obj 237 498 var mm;
#X connect 0 0 23 0;
#X connect 1 0 2 0;
#X connect 2 0 5 0;
#X connect 3 0 6 0;
#X connect 4 0 22 0;
#X connect 5 0 4 0;
#X connect 5 1 3 0;
#X connect 6 0 4 1;
#X connect 6 1 19 0;
#X connect 7 0 10 0;
#X connect 8 0 11 0;
#X connect 9 0 8 0;
#X connect 9 1 7 0;
#X connect 10 0 8 1;
#X connect 10 1 20 0;
#X connect 11 0 14 0;
#X connect 12 0 15 0;
#X connect 14 0 13 0;
#X connect 14 1 12 0;
#X connect 15 0 13 1;
#X connect 15 1 21 0;
#X connect 16 0 18 0;
#X connect 18 0 17 0;
#X connect 19 0 16 2;
#X connect 19 0 24 0;
#X connect 20 0 16 1;
#X connect 20 0 25 0;
#X connect 21 0 16 0;
#X connect 21 0 26 0;
#X connect 22 0 9 0;
#X connect 23 0 1 0;
#X restore 27 15 pd calc;
#X obj 88 195 list-abs/list-group 2;
#X connect 0 0 11 0;
#X connect 1 1 12 0;
#X connect 2 1 10 0;
#X connect 3 0 2 0;
#X connect 5 0 4 0;
#X connect 6 0 8 0;
#X connect 6 1 7 1;
#X connect 7 0 5 0;
#X connect 8 0 7 0;
#X connect 8 1 4 1;
#X connect 10 0 1 0;
#X connect 10 0 9 0;
#X connect 11 0 3 0;
#X connect 12 0 6 0;
#X restore 258 98 pd timeline;
#X text 256 28 < - Ouvre moi;
#X text 40 28 aClock Master Pd PAtch;
#N canvas 0 22 508 402 chrono 0;
#X obj 189 100 metro 100;
#X obj 194 182 + 0.1;
#X obj 151 176 f;
#X obj 206 45 tgl 15 0 empty empty empty 17 7 0 10 -262144 -1 -1 0
1;
#X obj 107 74 sel 1;
#X obj 108 99 t b b;
#X msg 107 122 1;
#X msg 141 125 0;
#X obj 187 214 / 60;
#X floatatom 374 367 5 0 0 0 - - -, f 5;
#X obj 214 277 int;
#X obj 187 243 t f f;
#X obj 178 306 -;
#X floatatom 235 386 5 0 0 0 - - -, f 5;
#X obj 173 344 * 60;
#X floatatom 378 397 5 0 0 0 - - -, f 5;
#X obj 264 365 var timerMinutes;
#X obj 264 393 var timersecondes;
#X obj 107 44 var chrono;
#X connect 0 0 2 0;
#X connect 1 0 2 1;
#X connect 2 0 1 0;
#X connect 2 0 8 0;
#X connect 3 0 18 1;
#X connect 4 0 5 0;
#X connect 4 1 0 0;
#X connect 5 0 6 0;
#X connect 5 1 7 0;
#X connect 6 0 0 0;
#X connect 7 0 2 1;
#X connect 8 0 11 0;
#X connect 9 0 16 1;
#X connect 10 0 12 1;
#X connect 10 0 16 0;
#X connect 11 0 12 0;
#X connect 11 1 10 0;
#X connect 12 0 14 0;
#X connect 14 0 13 0;
#X connect 14 0 17 0;
#X connect 15 0 17 1;
#X connect 16 1 9 0;
#X connect 17 1 15 0;
#X connect 18 0 4 0;
#X restore 395 116 pd chrono;
#N canvas 0 22 450 300 remote 0;
#X obj 85 49 pd-osc/oreceive 8000;
#X floatatom 249 85 5 0 0 0 - - -, f 5;
#X msg 244 120 /1/rotary6 \$1;
#X obj 83 178 pd-osc/osend 192.168.101.255 9000;
#X obj 78 111 list-abs/list-compare;
#X connect 1 0 2 0;
#X connect 2 0 3 0;
#X restore 395 141 pd remote;
#N canvas 399 370 450 300 OSC 0;
#X restore 467 166 pd OSC;
#X floatatom 477 194 5 0 0 0 - - -, f 5;
#X obj 7 321 var clickAbsolu;
#X obj 181 223 var clickActive;
#X obj 386 195 var polyVolume;
#X obj 259 73 var clickAbsolu;
#N canvas 475 197 450 300 keyMap 0;
#X obj 39 20 keyname;
#X obj 40 49 sel 1;
#X obj 37 250 +;
#X obj 79 278 var deltaSubjectif;
#X msg 36 168 1;
#X msg 68 168 -1;
#X obj 37 277 f;
#X obj 39 83 list append;
#X obj 38 136 sel W S E D;
#X msg 101 170 1;
#X msg 133 170 -1;
#X obj 86 195 +;
#X obj 86 222 f;
#X obj 128 223 var deltaObjectif;
#X obj 127 198 var deltaObjectif;
#X obj 76 252 var deltaSubjectif;
#X obj 257 57 print;
#X obj 289 125 sel ! @ # $ %;
#X obj 293 264 s /READY;
#X obj 313 239 s /SET;
#X obj 333 214 s /GO;
#X obj 349 193 s /FadeOut;
#X obj 375 173 s /Fin;
#X connect 0 0 1 0;
#X connect 0 1 7 1;
#X connect 0 1 16 0;
#X connect 1 0 7 0;
#X connect 2 0 6 0;
#X connect 3 0 6 1;
#X connect 4 0 2 0;
#X connect 5 0 2 0;
#X connect 6 0 2 1;
#X connect 6 0 3 0;
#X connect 7 0 8 0;
#X connect 8 0 4 0;
#X connect 8 1 5 0;
#X connect 8 2 9 0;
#X connect 8 3 10 0;
#X connect 8 4 17 0;
#X connect 9 0 11 0;
#X connect 10 0 11 0;
#X connect 11 0 12 0;
#X connect 12 0 11 1;
#X connect 12 0 13 0;
#X connect 13 0 12 1;
#X connect 14 0 11 1;
#X connect 15 0 2 1;
#X connect 17 0 18 0;
#X connect 17 1 19 0;
#X connect 17 2 20 0;
#X connect 17 3 21 0;
#X connect 17 4 22 0;
#X restore 396 165 pd keyMap;
#X connect 1 0 4 0;
#X connect 1 0 22 0;
#X connect 2 0 1 0;
#X connect 3 0 0 0;
#X connect 5 0 21 0;
#X connect 7 0 6 0;
#X connect 7 0 6 1;
#X connect 8 0 33 1;
#X connect 9 0 12 0;
#X connect 9 0 32 1;
#X connect 10 0 20 0;
#X connect 12 0 11 0;
#X connect 13 0 19 0;
#X connect 15 0 9 0;
#X connect 15 1 9 1;
#X connect 16 0 15 1;
#X connect 16 1 13 1;
#X connect 17 0 16 0;
#X connect 18 0 15 0;
#X connect 18 1 13 0;
#X connect 19 0 11 0;
#X connect 20 0 19 1;
#X connect 20 1 11 1;
#X connect 22 0 24 0;
#X connect 22 1 5 0;
#X connect 24 0 18 0;
#X connect 31 0 34 1;
#X connect 32 1 9 0;
#X connect 33 0 17 0;
#X connect 33 1 8 0;
#X connect 34 0 21 1;
#X connect 34 1 31 0;
#X connect 35 0 25 0;
