#N canvas 307 37 486 448 10;
#N canvas 338 122 308 554 config 0;
#X obj 56 114 text define config;
#X msg 68 90 write config.txt;
#X obj 29 141 text size config;
#X obj 29 268 text get config;
#X msg 56 69 read config.txt;
#X obj 29 187 until;
#X obj 29 244 t f f;
#X obj 29 219 f;
#X obj 76 245 + 1;
#X obj 29 165 t f b;
#X msg 70 187 0;
#X obj 56 318 list split 1;
#X obj 57 372 list;
#X obj 57 400 list trim;
#X obj 103 435 send;
#X obj 46 17 loadbang;
#X obj 29 45 t b b;
#X obj 29 18 bng 15 250 50 0 empty empty empty 17 7 0 10 -262144 -1
-1;
#X obj 92 346 t b a;
#X obj 29 291 t a a;
#X obj 30 434 send print;
#X obj 115 19 inlet;
#X msg 160 184 \; pd dsp 1;
#X obj 160 145 loadbang;
#X obj 160 164 del 100;
#X connect 1 0 0 0;
#X connect 2 0 9 0;
#X connect 3 0 19 0;
#X connect 4 0 0 0;
#X connect 5 0 7 0;
#X connect 6 0 3 0;
#X connect 6 1 8 0;
#X connect 7 0 6 0;
#X connect 8 0 7 1;
#X connect 9 0 5 0;
#X connect 9 1 10 0;
#X connect 10 0 7 1;
#X connect 11 0 18 0;
#X connect 11 1 12 1;
#X connect 12 0 13 0;
#X connect 13 0 14 0;
#X connect 15 0 16 0;
#X connect 16 0 2 0;
#X connect 16 1 4 0;
#X connect 17 0 16 0;
#X connect 18 0 12 0;
#X connect 18 1 14 1;
#X connect 19 0 20 0;
#X connect 19 1 11 0;
#X connect 21 0 16 0;
#X connect 23 0 24 0;
#X connect 24 0 22 0;
#X restore 375 85 pd config;
#X obj 62 116 bonker~ bonk;
#X obj 62 84 adc~;
#X obj 354 86 bng 15 250 50 0 empty empty empty 17 7 0 10 -262144 -1
-1;
#X obj 43 115 bng 15 250 50 0 empty empty empty 17 7 0 10 -262144 -1
-1;
#N canvas 690 299 450 300 transform 0;
#X obj 26 17 inlet;
#X obj -31 88 / 64;
#X obj 67 49 unpack;
#X obj 30 197 pack;
#X obj 30 219 outlet;
#X obj 178 105 / 10;
#X obj -29 123 * -1;
#X obj -29 143 + 1;
#X text 215 112 inverser pour ques le notes forte sorte un grave;
#X obj 29 113 expr abs(127-$f1)/127;
#X obj 173 151 clip 0 1;
#X connect 0 0 2 0;
#X connect 1 0 6 0;
#X connect 2 0 9 0;
#X connect 2 1 5 0;
#X connect 3 0 4 0;
#X connect 5 0 10 0;
#X connect 6 0 7 0;
#X connect 9 0 3 0;
#X connect 10 0 3 1;
#X restore 88 167 pd transform;
#X obj 162 114 dac~;
#X obj 162 86 catch~ out;
#X obj 308 226 tgl 15 0 empty empty empty 17 7 0 10 -262144 -1 -1 1
1;
#N canvas 26 53 450 300 conteur 0;
#X obj 42 29 inlet;
#X obj 208 44 inlet;
#X obj 37 238 outlet;
#X obj 96 135 int;
#X msg 136 67 0;
#X obj 122 246 sel 1;
#X msg 161 174 0;
#X obj 121 275 t b b;
#X obj 165 277 outlet;
#X obj 43 69 route set;
#X obj 162 135 - 1;
#X obj 122 218 < 1;
#X obj 95 188 t a a a;
#X obj 41 104 change;
#X msg 33 178 set \$1;
#X connect 0 0 9 0;
#X connect 1 0 10 1;
#X connect 3 0 10 0;
#X connect 3 0 12 0;
#X connect 4 0 3 0;
#X connect 5 0 7 0;
#X connect 6 0 3 1;
#X connect 7 0 6 0;
#X connect 7 1 8 0;
#X connect 9 0 13 0;
#X connect 9 1 3 0;
#X connect 10 0 3 1;
#X connect 11 0 5 0;
#X connect 12 0 2 0;
#X connect 12 1 11 0;
#X connect 12 2 14 0;
#X connect 13 0 3 0;
#X connect 14 0 13 0;
#X restore 134 327 pd conteur;
#X obj 341 297 pd-osc/oreceive 7778;
#X obj 133 394 pd-osc/osend 127.0.0.1 7776;
#X obj 134 351 list prepend /temps;
#N canvas 879 309 456 346 accumOpac 0;
#X obj 182 41 inlet;
#X obj 159 179 f;
#X obj 247 43 inlet;
#X obj 246 72 t b;
#X obj 209 205 + 0;
#X obj 182 73 t b;
#X obj 303 316 outlet;
#X obj 195 145 t b a;
#X obj 161 263 > 1;
#X obj 148 235 t a a a;
#X obj 161 285 sel 1;
#X msg 161 313 1;
#X obj 101 285 sel 1;
#X obj 101 263 < 0.2;
#X msg 101 313 0.2;
#X obj 301 286 clip 0.2 1;
#X msg 246 100 -0.0025;
#X msg 182 97 0.03;
#X connect 0 0 5 0;
#X connect 1 0 4 0;
#X connect 2 0 3 0;
#X connect 3 0 16 0;
#X connect 4 0 1 1;
#X connect 4 0 9 0;
#X connect 5 0 17 0;
#X connect 7 0 1 0;
#X connect 7 1 4 1;
#X connect 8 0 10 0;
#X connect 9 0 13 0;
#X connect 9 1 8 0;
#X connect 9 2 15 0;
#X connect 10 0 11 0;
#X connect 11 0 1 1;
#X connect 12 0 14 0;
#X connect 13 0 12 0;
#X connect 14 0 1 1;
#X connect 15 0 6 0;
#X connect 16 0 7 0;
#X connect 17 0 7 0;
#X restore 236 303 pd accumOpac;
#N canvas 795 43 553 390 control 1;
#X msg 58 14 604800;
#X floatatom 158 89 10 0 0 0 - - -, f 10;
#X obj 45 88 var deltaObjectif;
#X obj 59 39 var clickAbsolu;
#X floatatom 158 40 10 0 0 0 - - -, f 10;
#X floatatom 161 115 10 0 0 0 - - -, f 10;
#X obj 45 114 var deltaSubjectif;
#X obj 220 14 tgl 15 0 empty empty empty 17 7 0 10 -262144 -1 -1 1
1;
#X obj 120 14 var clickActive;
#X obj 163 160 hsl 128 15 0 1 0 1 empty empty empty -8 0 0 8 -262144
-1 -1 2540 0;
#X obj 163 138 hsl 128 15 0 1 0 1 empty empty empty -8 0 0 8 -262144
-1 -1 10160 0;
#X obj 85 138 var opacity;
#X obj 98 159 var trail;
#X obj 370 87 var /bonk/minVel;
#X floatatom 477 88 10 0 0 0 - - -, f 10;
#X floatatom 477 48 10 0 0 0 - - -, f 10;
#X obj 334 46 var /bonk/highTreshold;
#X floatatom 476 68 10 0 0 0 - - -, f 10;
#X obj 333 66 var /bonk/fallThreshold;
#X floatatom 477 110 10 0 0 0 - - -, f 10;
#X obj 329 109 var /bonk/attack-frames;
#X obj 432 131 var jj;
#X obj 432 151 var hh;
#X obj 432 170 var mm;
#X floatatom 476 133 5 0 0 0 - - -, f 5;
#X floatatom 474 153 5 0 0 0 - - -, f 5;
#X floatatom 475 173 5 0 0 0 - - -, f 5;
#X obj 62 65 var polyVolume;
#X obj 165 181 hsl 128 15 0 1 0 1 empty empty empty -8 0 0 8 -262144
-1 -1 12700 0;
#X obj 163 203 tgl 15 0 empty empty empty 17 7 0 10 -262144 -1 -1 0
1;
#X obj 82 221 var tickTack;
#X obj 163 222 tgl 15 0 empty empty empty 17 7 0 10 -262144 -1 -1 1
1;
#X obj 51 202 var tickTackChime;
#X obj 63 181 var tickTackVol;
#X obj 156 66 hsl 128 15 0 1 0 1 empty empty empty -8 0 0 8 -262144
-1 -1 12700 0;
#X floatatom 475 192 5 0 0 0 - - -, f 5;
#X obj 372 191 var timerMinutes;
#X obj 366 208 var timersecondes;
#X floatatom 475 209 5 0 0 0 - - -, f 5;
#X text 2 14 Start ->;
#X obj 60 260 loadbang;
#X obj 61 320 text define sequence;
#X msg 61 299 write timeline.txt;
#X msg 60 278 read timeline.txt;
#X obj 321 297 hsl 128 15 0 1 0 1 empty empty empty -8 0 0 8 -262144
-1 -1 12700 0;
#X obj 208 295 var masterOpacity;
#X connect 0 0 3 0;
#X connect 1 0 2 1;
#X connect 2 1 1 0;
#X connect 3 1 4 0;
#X connect 4 0 3 1;
#X connect 5 0 6 1;
#X connect 6 1 5 0;
#X connect 7 0 8 1;
#X connect 8 1 7 0;
#X connect 9 0 12 1;
#X connect 10 0 11 1;
#X connect 11 1 10 0;
#X connect 12 1 9 0;
#X connect 13 1 14 0;
#X connect 14 0 13 1;
#X connect 15 0 16 1;
#X connect 16 1 15 0;
#X connect 17 0 18 1;
#X connect 18 1 17 0;
#X connect 19 0 20 1;
#X connect 20 1 19 0;
#X connect 21 1 24 0;
#X connect 22 1 25 0;
#X connect 23 1 26 0;
#X connect 24 0 21 1;
#X connect 25 0 22 1;
#X connect 26 0 23 1;
#X connect 27 1 34 0;
#X connect 28 0 33 1;
#X connect 29 0 32 1;
#X connect 30 1 31 0;
#X connect 31 0 30 1;
#X connect 32 1 29 0;
#X connect 33 1 28 0;
#X connect 34 0 27 1;
#X connect 35 0 36 1;
#X connect 36 1 35 0;
#X connect 37 1 38 0;
#X connect 38 0 37 1;
#X connect 40 0 43 0;
#X connect 42 0 41 0;
#X connect 43 0 41 0;
#X connect 44 0 45 1;
#X connect 45 1 44 0;
#X coords 0 390 1 389 500 300 0;
#X restore 210 37 pd control;
#N canvas 0 22 450 300 tempSubObj 0;
#X obj 35 44 inlet;
#X obj 293 18 inlet;
#X obj 211 233 outlet;
#X obj 32 235 outlet;
#X obj 286 91 t b b;
#X obj 38 73 t b b;
#X obj 56 104 f;
#X obj 211 153 f;
#X obj 236 152 var deltaObjectif;
#X obj 80 104 var deltaSubjectif;
#X connect 0 0 5 0;
#X connect 1 0 4 0;
#X connect 4 0 3 0;
#X connect 4 1 7 0;
#X connect 5 0 3 0;
#X connect 5 1 6 0;
#X connect 6 0 2 0;
#X connect 7 0 2 0;
#X connect 8 0 7 1;
#X connect 9 0 6 1;
#X restore 134 303 pd tempSubObj;
#X obj 209 268 t b b;
#X obj 208 246 metro 21;
#X obj 34 329 var clickAbsolu;
#X obj 208 225 var clickActive;
#X obj 136 268 t b b;
#N canvas 538 356 760 386 vizParam 0;
#X obj 386 155 inlet;
#X obj 231 340 outlet;
#X obj 43 338 outlet;
#X obj 36 264 list prepend /trail;
#X obj 93 129 hsl 128 15 0 1 0 1 empty empty empty -8 0 0 8 -262144
-1 -1 2540 0;
#X obj 30 223 line 0;
#X msg 29 197 \$1 50;
#X obj 198 297 list prepend /opacity;
#X obj 265 201 hsl 128 15 0 1 0 1 empty empty empty -8 0 0 8 -262144
-1 -1 10160 0;
#X obj 187 201 var opacity;
#X obj 28 128 var trail;
#X obj 27 152 f;
#X obj 201 255 f;
#X obj 27 12 inlet, f 7;
#X obj 309 101 expr 1-$f1;
#X floatatom 99 16 5 0 0 0 - - -, f 5;
#X obj 28 70 t a a;
#X obj 217 62 hsl 128 15 0 1 0 1 empty empty empty -8 0 0 8 -262144
-1 -1 4700 0;
#X obj 28 175 pow 0.2;
#X obj 310 132 clip 0.05 1;
#X obj 107 234 clip 0 0.98;
#X obj 248 271 *;
#X obj 374 258 var masterOpacity;
#X obj 324 243 t b f;
#X connect 0 0 11 0;
#X connect 0 0 12 0;
#X connect 3 0 2 0;
#X connect 4 0 10 1;
#X connect 5 0 20 0;
#X connect 6 0 5 0;
#X connect 7 0 2 0;
#X connect 8 0 9 1;
#X connect 9 0 12 0;
#X connect 9 1 8 0;
#X connect 10 0 11 0;
#X connect 10 1 4 0;
#X connect 11 0 18 0;
#X connect 12 0 21 0;
#X connect 13 0 16 0;
#X connect 14 0 19 0;
#X connect 15 0 16 0;
#X connect 16 0 10 0;
#X connect 16 1 14 0;
#X connect 17 0 15 0;
#X connect 18 0 6 0;
#X connect 19 0 9 0;
#X connect 20 0 3 0;
#X connect 21 0 7 0;
#X connect 22 0 23 0;
#X connect 23 0 21 0;
#X connect 23 1 21 1;
#X restore 268 346 pd vizParam;
#N canvas 0 22 450 300 reconnect 0;
#X obj 134 203 outlet;
#X obj 139 17 inlet;
#X msg 131 154 reconnect;
#X obj 140 46 route /processing;
#X obj 138 74 route ready;
#X obj 200 153 print osc;
#X obj 78 208 outlet;
#X obj 139 102 t b b;
#X connect 1 0 3 0;
#X connect 2 0 0 0;
#X connect 3 0 4 0;
#X connect 4 0 7 0;
#X connect 7 0 5 0;
#X connect 7 0 6 0;
#X connect 7 1 2 0;
#X restore 341 319 pd reconnect;
#X obj 344 191 var polyVolume;
#X obj 438 190 tgl 15 0 empty empty empty 17 7 0 10 -262144 -1 -1 1
1;
#X obj 88 193 patches/createPoly ../sounds/sound.wav 10;
#X obj 62 145 t b a;
#N canvas 808 240 493 350 tickTack 0;
#X obj 396 170 soundfiler;
#X obj 496 168 array define snd1;
#X msg 409 131 read -resize sounds/chime.wav snd1;
#X obj 11 275 throw~ out;
#X obj 11 149 tabplay~ snd1;
#X msg 215 181 0;
#X obj 500 209 array define loop;
#X msg 396 104 read -resize sounds/loop.wav loop;
#X obj 87 181 tabplay~ loop;
#X msg 95 240 \$1 100;
#X obj 38 245 line~;
#X obj 10 244 *~;
#X floatatom 253 232 5 0 0 0 - - -, f 5;
#X obj 11 121 spigot;
#X obj 10 45 sel 0 1;
#X obj 119 21 tgl 15 0 empty empty empty 17 7 0 10 -262144 -1 -1 0
1;
#X obj 107 124 spigot;
#X obj 68 76 t f f;
#X msg 8 77 0;
#X msg 36 78 1;
#X msg 106 79 0;
#X msg 132 79 1;
#X msg 63 108 0;
#X obj 272 125 sel 0 1;
#X msg 228 128 stop;
#X obj 272 99 var tickTack;
#X obj 353 100 tgl 15 0 empty empty empty 17 7 0 10 -262144 -1 -1 1
1;
#X obj 10 20 var tickTackChime;
#X obj 148 228 var tickTackVol;
#X obj 405 41 loadbang;
#X obj 405 70 t b b;
#X obj -157 114 r tickTackPlayChime;
#X obj -156 137 t b b;
#X obj -151 240 var tickTackVol;
#X msg -151 158 0;
#X obj -113 139 bng 15 250 50 0 empty empty empty 17 7 0 10 -262144
-1 -1;
#X obj -150 215 line;
#X msg -150 187 1 \, \$1 11000;
#X obj 176 182 del 1;
#X connect 2 0 0 0;
#X connect 4 0 11 0;
#X connect 4 1 8 0;
#X connect 5 0 17 0;
#X connect 7 0 0 0;
#X connect 8 0 11 0;
#X connect 8 1 38 0;
#X connect 9 0 10 0;
#X connect 10 0 11 1;
#X connect 11 0 3 0;
#X connect 12 0 28 1;
#X connect 13 0 4 0;
#X connect 14 0 18 0;
#X connect 14 0 21 0;
#X connect 14 1 19 0;
#X connect 14 1 20 0;
#X connect 15 0 27 1;
#X connect 16 0 8 0;
#X connect 17 0 13 0;
#X connect 17 0 22 0;
#X connect 17 1 16 0;
#X connect 18 0 13 1;
#X connect 19 0 13 1;
#X connect 20 0 16 1;
#X connect 21 0 16 1;
#X connect 22 0 27 0;
#X connect 23 0 24 0;
#X connect 23 1 8 0;
#X connect 24 0 8 0;
#X connect 25 0 23 0;
#X connect 25 1 26 0;
#X connect 26 0 25 1;
#X connect 27 0 14 0;
#X connect 27 1 15 0;
#X connect 28 0 9 0;
#X connect 28 1 12 0;
#X connect 29 0 30 0;
#X connect 30 0 7 0;
#X connect 30 1 2 0;
#X connect 31 0 32 0;
#X connect 32 0 34 0;
#X connect 32 1 4 0;
#X connect 34 0 37 0;
#X connect 35 0 32 0;
#X connect 36 0 33 0;
#X connect 37 0 36 0;
#X connect 38 0 5 0;
#X restore 363 108 pd tickTack;
#X obj 62 233 t b;
#N canvas 512 307 593 401 timeline 0;
#X obj 27 -9 inlet;
#X obj 58 150 list split 3;
#X obj 27 64 sel -1;
#X obj 27 40 text search sequence;
#X obj 92 379 send;
#X obj 92 357 list trim;
#X obj 88 260 list split 1;
#X obj 92 332 list;
#X obj 92 311 t b a;
#X obj 92 123 print;
#X obj 58 95 text get sequence;
#N canvas 0 22 362 534 calc 0;
#X obj 13 12 inlet;
#X obj 12 55 / 60;
#X obj 12 76 / 60;
#X obj 39 120 int;
#X obj 12 165 -;
#X obj 12 98 t a a;
#X obj 38 141 t a a;
#X obj 39 235 int;
#X obj 13 294 -;
#X obj 12 213 t a a;
#X obj 39 258 t a a;
#X obj 13 324 * 60;
#X obj 40 369 int;
#X obj 14 428 -;
#X obj 13 347 t a a;
#X obj 40 392 t a a;
#X obj 65 459 pack 0 0 0;
#X obj 65 507 outlet;
#X msg 65 482 \$3 \$2 \$1;
#X obj 156 417 change;
#X obj 111 416 change;
#X obj 67 416 change;
#X obj 237 451 var jj;
#X obj 237 474 var hh;
#X obj 237 498 var mm;
#X obj 12 190 * 24;
#X obj 13 34 / 24;
#X connect 0 0 26 0;
#X connect 1 0 2 0;
#X connect 2 0 5 0;
#X connect 3 0 6 0;
#X connect 4 0 25 0;
#X connect 5 0 4 0;
#X connect 5 1 3 0;
#X connect 6 0 4 1;
#X connect 6 1 19 0;
#X connect 7 0 10 0;
#X connect 8 0 11 0;
#X connect 9 0 8 0;
#X connect 9 1 7 0;
#X connect 10 0 8 1;
#X connect 10 1 20 0;
#X connect 11 0 14 0;
#X connect 12 0 15 0;
#X connect 14 0 13 0;
#X connect 14 1 12 0;
#X connect 15 0 13 1;
#X connect 15 1 21 0;
#X connect 16 0 18 0;
#X connect 18 0 17 0;
#X connect 19 0 16 2;
#X connect 19 0 22 0;
#X connect 20 0 16 1;
#X connect 20 0 23 0;
#X connect 21 0 16 0;
#X connect 21 0 24 0;
#X connect 25 0 9 0;
#X connect 26 0 1 0;
#X restore 27 15 pd calc;
#X obj 88 195 list-group 2;
#X connect 0 0 11 0;
#X connect 1 1 12 0;
#X connect 2 1 10 0;
#X connect 3 0 2 0;
#X connect 5 0 4 0;
#X connect 6 0 8 0;
#X connect 6 1 7 1;
#X connect 7 0 5 0;
#X connect 8 0 7 0;
#X connect 8 1 4 1;
#X connect 10 0 1 0;
#X connect 10 0 9 0;
#X connect 11 0 3 0;
#X connect 12 0 6 0;
#X restore 232 111 pd timeline;
#X obj 233 86 var clickAbsolu;
#X text 283 36 < - Ouvre moi;
#X text 67 36 aClock Master Pd PAtch;
#N canvas 0 22 508 402 chrono 0;
#X obj 189 100 metro 100;
#X obj 194 182 + 0.1;
#X obj 151 176 f;
#X obj 206 45 tgl 15 0 empty empty empty 17 7 0 10 -262144 -1 -1 0
1;
#X obj 107 74 sel 1;
#X obj 108 99 t b b;
#X msg 107 122 1;
#X msg 141 125 0;
#X obj 187 214 / 60;
#X floatatom 374 367 5 0 0 0 - - -, f 5;
#X obj 214 277 int;
#X obj 187 243 t f f;
#X obj 178 306 -;
#X floatatom 235 386 5 0 0 0 - - -, f 5;
#X obj 173 344 * 60;
#X obj 264 365 var timerMinutes;
#X obj 264 393 var timersecondes;
#X floatatom 378 397 5 0 0 0 - - -, f 5;
#X obj 107 44 var chrono;
#X connect 0 0 2 0;
#X connect 1 0 2 1;
#X connect 2 0 1 0;
#X connect 2 0 8 0;
#X connect 3 0 18 1;
#X connect 4 0 5 0;
#X connect 4 1 0 0;
#X connect 5 0 6 0;
#X connect 5 1 7 0;
#X connect 6 0 0 0;
#X connect 7 0 2 1;
#X connect 8 0 11 0;
#X connect 9 0 15 1;
#X connect 10 0 12 1;
#X connect 10 0 15 0;
#X connect 11 0 12 0;
#X connect 11 1 10 0;
#X connect 12 0 14 0;
#X connect 14 0 13 0;
#X connect 14 0 16 0;
#X connect 15 1 9 0;
#X connect 16 1 17 0;
#X connect 17 0 16 1;
#X connect 18 0 4 0;
#X restore 378 130 pd chrono;
#X connect 1 0 4 0;
#X connect 1 0 26 0;
#X connect 2 0 1 0;
#X connect 3 0 0 0;
#X connect 5 0 25 0;
#X connect 7 0 6 0;
#X connect 7 0 6 1;
#X connect 8 0 19 1;
#X connect 9 0 12 0;
#X connect 9 0 18 1;
#X connect 10 0 22 0;
#X connect 12 0 11 0;
#X connect 13 0 21 0;
#X connect 15 0 9 0;
#X connect 15 1 9 1;
#X connect 16 0 15 1;
#X connect 16 1 13 1;
#X connect 17 0 16 0;
#X connect 18 1 9 0;
#X connect 19 0 17 0;
#X connect 19 1 8 0;
#X connect 20 0 15 0;
#X connect 20 1 13 0;
#X connect 21 0 11 0;
#X connect 22 0 21 1;
#X connect 22 1 11 1;
#X connect 23 0 25 1;
#X connect 23 1 24 0;
#X connect 24 0 23 1;
#X connect 26 0 28 0;
#X connect 26 1 5 0;
#X connect 28 0 20 0;
#X connect 30 0 29 0;
