#N canvas 516 27 450 300 10;
#X obj 53 137 change;
#X floatatom 166 129 5 0 0 0 - - -, f 5;
#X obj 52 16 inlet;
#X obj 53 213 outlet;
#X obj 53 107 var \$2;
#X obj 52 60 route;
#X obj 109 16 loadbang;
#X obj 110 42 symbol \$1;
#X obj 293 29 loadbang;
#X obj 293 64 symbol \$2;
#X obj 381 40 bng 15 250 50 0 empty empty empty 17 7 0 10 -262144 -1
-1;
#X obj 294 92 list prepend setMe;
#X obj 178 84 outlet;
#X obj 53 166 list prepend \$1;
#X connect 0 0 13 0;
#X connect 1 0 4 1;
#X connect 2 0 5 0;
#X connect 4 0 0 0;
#X connect 4 1 1 0;
#X connect 5 0 4 0;
#X connect 5 1 12 0;
#X connect 6 0 7 0;
#X connect 7 0 5 1;
#X connect 8 0 9 0;
#X connect 9 0 11 0;
#X connect 10 0 9 0;
#X connect 11 0 4 1;
#X connect 13 0 3 0;
