#N canvas 837 353 450 300 10;
#X obj 25 21 inlet;
#X obj 25 210 outlet;
#X obj 74 22 inlet;
#X obj 142 259 outlet;
#X obj 142 206 list prepend set;
#X obj 142 232 list trim;
#X obj 25 156 receive \$1;
#X obj 27 127 send;
#X obj 151 132 loadbang;
#X obj 151 154 symbol \$1;
#X obj 140 33 receive line/\$1;
#X obj 161 106 line 0;
#X obj 171 65 unpack;
#X msg 53 85 set \$1;
#X obj 26 57 t a a b;
#X msg 116 85 stop;
#X connect 0 0 14 0;
#X connect 2 0 14 0;
#X connect 4 0 5 0;
#X connect 5 0 3 0;
#X connect 6 0 1 0;
#X connect 6 0 4 0;
#X connect 8 0 9 0;
#X connect 9 0 7 1;
#X connect 10 0 12 0;
#X connect 11 0 7 0;
#X connect 12 0 11 0;
#X connect 12 1 11 1;
#X connect 13 0 11 0;
#X connect 14 0 7 0;
#X connect 14 1 13 0;
#X connect 14 2 15 0;
#X connect 15 0 11 0;
