#N canvas 841 159 450 300 10;
#X obj 24 15 inlet;
#X obj 24 155 outlet;
#X obj 147 14 inlet;
#X obj 141 204 outlet;
#X obj 141 151 list prepend set;
#X obj 141 177 list trim;
#X obj 191 56 loadbang;
#X obj 24 75 send;
#X obj 24 101 receive \$1;
#X obj 130 93 symbol \$1;
#X connect 0 0 7 0;
#X connect 2 0 7 0;
#X connect 4 0 5 0;
#X connect 5 0 3 0;
#X connect 6 0 9 0;
#X connect 8 0 1 0;
#X connect 8 0 4 0;
#X connect 9 0 7 1;
